<svg width="32" height="32" viewBox="0 0 32 32" fill="none" xmlns="http://www.w3.org/2000/svg">
<path d="M14.6665 29.3334V19.9038C10.1567 19.2525 6.6665 15.3504 6.6665 10.6666V4C6.6665 3.60059 6.84564 3.22224 7.15448 2.96899C7.4634 2.71574 7.86976 2.6142 8.26146 2.69254L7.99992 4C8.26141 2.69256 8.26195 2.69269 8.26242 2.69279C8.26264 2.69283 8.26306 2.69296 8.26338 2.69303C8.2641 2.69317 8.2649 2.69333 8.26578 2.69351C8.26759 2.69387 8.26982 2.6942 8.27227 2.69471C8.27717 2.69571 8.28335 2.69698 8.29078 2.69855C8.30573 2.70171 8.32581 2.706 8.35064 2.71154C8.40029 2.7226 8.46936 2.73866 8.55569 2.76009C8.72821 2.80293 8.97066 2.86772 9.26698 2.95889C9.8584 3.14086 10.6722 3.43044 11.5768 3.86466C13.3706 4.72567 15.6145 6.20084 17.1307 8.62668C17.5209 9.2511 17.331 10.0737 16.7066 10.4639C16.0822 10.8542 15.2594 10.6643 14.8691 10.0399C13.7186 8.19916 11.9625 7.00773 10.423 6.26875C10.0349 6.08246 9.66645 5.92765 9.33333 5.80072V10.6666C9.33333 14.3302 12.3363 17.3334 15.9999 17.3334C16.7363 17.3334 17.3333 17.9302 17.3333 18.6666V29.3334C17.3333 30.0698 16.7363 30.6666 15.9999 30.6666C15.2636 30.6666 14.6665 30.0698 14.6665 29.3334ZM7.73598 5.30697C7.73623 5.30702 7.73654 5.30713 7.73694 5.30721H7.73742C7.73621 5.30696 7.73541 5.30676 7.73525 5.30673C7.73525 5.30673 7.73556 5.30688 7.73598 5.30697Z" fill="#F6F6F5"/>
<path d="M15.4037 1.47411C15.7791 1.28643 16.2209 1.28645 16.5962 1.47411L16.0001 2.66666C16.5964 1.47412 16.5967 1.4742 16.597 1.47435L16.5977 1.47484L16.6135 1.48277C16.6218 1.487 16.6326 1.49273 16.6458 1.4996C16.6722 1.51337 16.7085 1.53236 16.753 1.55657C16.8419 1.60492 16.9651 1.67404 17.1131 1.76282C17.4075 1.93947 17.8081 2.1987 18.2352 2.53085C19.0482 3.16318 20.1381 4.19823 20.5982 5.57844C20.831 6.27702 20.4535 7.03212 19.7549 7.26498C19.0563 7.49777 18.3012 7.12024 18.0684 6.42171C17.8618 5.80195 17.2851 5.17021 16.5982 4.63589C16.386 4.47091 16.1801 4.32877 15.9998 4.21185C15.8197 4.32874 15.614 4.47098 15.402 4.63589C14.715 5.17023 14.1382 5.80192 13.9316 6.42171C13.6987 7.12025 12.9436 7.49782 12.245 7.26498C11.5465 7.03212 11.169 6.27701 11.4018 5.57844C11.8618 4.19823 12.9518 3.16318 13.7648 2.53085C14.1918 2.19868 14.5924 1.93948 14.8869 1.76282C15.0349 1.67401 15.1583 1.60493 15.2472 1.55657C15.2917 1.53238 15.3277 1.51336 15.3542 1.4996C15.3674 1.4927 15.3783 1.48701 15.3866 1.48277C15.3907 1.4807 15.3941 1.47891 15.397 1.47748C15.3984 1.47677 15.3997 1.4761 15.4008 1.47556C15.4014 1.47528 15.402 1.47507 15.4025 1.47484C15.4027 1.47472 15.4031 1.47441 15.4032 1.47435C15.4039 1.4751 15.4183 1.50333 15.8715 2.40969L15.4037 1.47411ZM16.5967 3.85873H16.5974C16.5977 3.85859 16.598 3.85836 16.5982 3.85825C16.5978 3.85843 16.5972 3.85846 16.5967 3.85873Z" fill="#F6F6F5"/>
<path d="M22.6667 5.70913C19.7306 6.77777 17.1121 9.55413 15.6915 12.382C14.8611 14.0348 14.5702 15.4577 14.7054 16.3423C14.7683 16.7536 14.908 16.9634 15.0393 17.0769C15.1683 17.1884 15.4352 17.3334 15.9999 17.3334C19.6635 17.3334 22.6667 14.3302 22.6667 10.6666V5.70913ZM25.3333 10.6666C25.3333 15.803 21.1363 20 15.9999 20C14.9648 20 14.0234 19.7238 13.2951 19.0942C12.5692 18.4666 12.2023 17.6151 12.0694 16.7452C11.8129 15.0673 12.3723 13.0486 13.3085 11.1849C15.1791 7.46142 19.0754 3.3676 23.8085 2.68053C24.1916 2.62495 24.5798 2.73858 24.8725 2.99182C25.1651 3.24509 25.3333 3.61297 25.3333 4V10.6666Z" fill="#178FFF"/>
<path d="M6.66667 21.3333C9.61843 21.3333 12.2509 21.9264 14.1859 23.2494C16.1844 24.6157 17.3332 26.6952 17.3333 29.3333C17.3333 30.0696 16.7364 30.6666 16.0001 30.6667C13.0483 30.6667 10.4159 30.0737 8.48085 28.7508C6.48226 27.3844 5.33325 25.3048 5.33325 22.6667C5.33325 21.9303 5.93029 21.3333 6.66667 21.3333ZM8.17436 24.0631C8.45855 25.1174 9.08238 25.9316 9.9859 26.5494C11.0524 27.2785 12.5697 27.7697 14.4921 27.9366C14.2079 26.8825 13.5842 26.0684 12.6808 25.4508C11.6143 24.7216 10.0969 24.2299 8.17436 24.0631Z" fill="#F6F6F5"/>
<path d="M25.3333 21.3333C26.0697 21.3333 26.6665 21.9303 26.6665 22.6667C26.6665 25.3048 25.5177 27.3844 23.5191 28.7508C21.5841 30.0737 18.9517 30.6667 15.9999 30.6667C15.2635 30.6667 14.6665 30.0696 14.6665 29.3333C14.6665 26.6952 15.8155 24.6157 17.8141 23.2494C19.7491 21.9264 22.3816 21.3333 25.3333 21.3333ZM23.8254 24.0631C21.9029 24.2299 20.3857 24.7216 19.3191 25.4508C18.4157 26.0684 17.7918 26.8824 17.5076 27.9366C19.4301 27.7697 20.9475 27.2785 22.0141 26.5494C22.9176 25.9317 23.5412 25.1174 23.8254 24.0631Z" fill="#178FFF"/>
</svg>
