<svg width="237" height="175" viewBox="0 0 237 175" fill="none" xmlns="http://www.w3.org/2000/svg">
<g clip-path="url(#clip0_67_192)">
<path d="M18.9372 37.9297C29.3959 37.9297 37.8744 29.4389 37.8744 18.9649C37.8744 8.49086 29.3959 0 18.9372 0C8.47846 0 0 8.49086 0 18.9649C0 29.4389 8.47846 37.9297 18.9372 37.9297Z" fill="#FF6584"/>
<path d="M112.578 175C164.367 175 206.35 171.311 206.35 166.76C206.35 162.209 164.367 158.52 112.578 158.52C60.7896 158.52 18.8066 162.209 18.8066 166.76C18.8066 171.311 60.7896 175 112.578 175Z" fill="#3F3D56"/>
<path d="M144.053 161.136H143.27C143.27 134.787 148.007 110.023 156.61 91.4067C165.257 72.6937 176.799 62.3879 189.111 62.3879V63.1727C164.266 63.1727 144.053 107.119 144.053 161.136Z" fill="#3F3D56"/>
<path d="M206.089 39.3685C206.089 45.5084 203.399 53.3632 200.081 53.3632C196.763 53.3632 194.073 45.5084 194.073 39.3685C194.073 33.2285 196.763 31.1285 200.081 31.1285C203.399 31.1285 206.089 33.2285 206.089 39.3685Z" fill="#E6E6E6"/>
<path d="M229.666 65.5611C223.602 66.4646 215.448 64.9562 214.96 61.6696C214.472 58.383 221.834 54.5628 227.898 53.6592C233.962 52.7556 236.432 55.1109 236.92 58.3975C237.409 61.6841 235.73 64.6575 229.666 65.5611Z" fill="#E6E6E6"/>
<path d="M202.792 88.919C200.623 83.1759 200.365 74.8761 203.468 73.7008C206.572 72.5255 211.862 78.9197 214.03 84.6627C216.199 90.4057 214.425 93.3227 211.321 94.4981C208.218 95.6734 204.96 94.662 202.792 88.919Z" fill="#E6E6E6"/>
<path d="M202.693 70.3662C206.877 70.3662 210.268 66.9699 210.268 62.7803C210.268 58.5907 206.877 55.1943 202.693 55.1943C198.51 55.1943 195.118 58.5907 195.118 62.7803C195.118 66.9699 198.51 70.3662 202.693 70.3662Z" fill="#178FFF"/>
<path d="M100.432 164.014H99.6487C99.6487 109.996 79.436 66.0501 54.5913 66.0501V65.2654C66.9026 65.2654 78.4449 75.5711 87.092 94.2841C95.6946 112.901 100.432 137.665 100.432 164.014Z" fill="#3F3D56"/>
<path d="M37.6132 42.2459C37.6132 48.3858 40.3029 56.2407 43.6208 56.2407C46.9388 56.2407 49.6285 48.3858 49.6285 42.2459C49.6285 36.106 46.9388 34.006 43.6208 34.006C40.3029 34.006 37.6132 36.106 37.6132 42.2459Z" fill="#E6E6E6"/>
<path d="M14.0357 68.4385C20.0999 69.3421 28.2537 67.8337 28.742 64.5471C29.2303 61.2604 21.8681 57.4402 15.8039 56.5366C9.73968 55.6331 7.26977 57.9884 6.78151 61.275C6.29324 64.5616 7.9715 67.535 14.0357 68.4385Z" fill="#E6E6E6"/>
<path d="M40.9101 91.7964C43.0788 86.0534 43.3373 77.7536 40.2338 76.5782C37.1304 75.4029 31.8402 81.7972 29.6716 87.5402C27.5029 93.2832 29.2771 96.2002 32.3805 97.3755C35.4839 98.5508 38.7415 97.5394 40.9101 91.7964Z" fill="#E6E6E6"/>
<path d="M41.0088 73.2437C45.1923 73.2437 48.5836 69.8473 48.5836 65.6577C48.5836 61.4681 45.1923 58.0718 41.0088 58.0718C36.8253 58.0718 33.4339 61.4681 33.4339 65.6577C33.4339 69.8473 36.8253 73.2437 41.0088 73.2437Z" fill="#178FFF"/>
<path d="M48.0613 162.444V147.272C48.0613 147.272 54.0689 152.765 48.0613 163.752" fill="#3F3D56"/>
<path d="M48.2595 162.05L52.5169 147.49C52.5169 147.49 56.741 154.453 47.8925 163.306" fill="#3F3D56"/>
<path d="M153.587 159.043V143.871C153.587 143.871 159.595 149.365 153.587 160.351" fill="#3F3D56"/>
<path d="M153.785 158.65L158.043 144.089C158.043 144.089 162.267 151.052 153.418 159.905" fill="#3F3D56"/>
<path d="M131.124 159.828V144.656C131.124 144.656 125.116 150.15 131.124 161.136" fill="#3F3D56"/>
<path d="M130.925 159.435L126.668 144.874C126.668 144.874 122.444 151.837 131.292 160.69" fill="#3F3D56"/>
<path d="M111.838 19.0957C114.813 19.0957 117.665 20.279 119.768 22.3853C121.872 24.4916 123.053 27.3484 123.053 30.3271V41.327H100.623V30.3271C100.623 28.8522 100.913 27.3917 101.477 26.0291C102.04 24.6664 102.867 23.4282 103.908 22.3853C104.949 21.3424 106.186 20.5151 107.546 19.9506C108.907 19.3862 110.365 19.0957 111.838 19.0957Z" fill="#2F2E41"/>
<path d="M122.938 42.6006C118.824 45.5271 113.344 46.6558 107.445 47.2321C111.509 43.9292 109.917 40.2812 107.445 36.5796L116.463 35.6533C116.724 39.0136 119.326 41.0851 122.938 42.6006Z" fill="#FFB8B8"/>
<path d="M124.788 77.5686L98.1952 73.8634C100.351 69.7965 101.798 65.8675 101.29 62.3194C101.02 60.5462 101.043 58.7406 101.357 56.9748L101.526 56.071C101.878 54.3319 102.55 52.6735 103.507 51.1802C104.575 49.4568 104.207 46.8674 103.745 44.2217L109.988 43.2954C113.433 45.0479 117.301 43.8802 121.319 41.6743L128.719 42.369C128.217 55.5745 127.115 67.6865 124.788 77.5686Z" fill="#E6E6E6"/>
<path d="M146.986 156.999L141.899 157.926L109.063 100.726L96.114 157.926L91.4893 157.694C91.3881 125.279 89.9327 89.688 97.7605 75.8649C100.697 68.8854 105.191 62.2022 103.514 55.3373C110.1 57.2596 116.731 57.1222 123.4 55.1057C123.087 63.343 123.384 71.0606 124.556 78.0318L146.986 156.999Z" fill="#178FFF"/>
<path d="M145.538 172.515C144.427 172.515 143.348 172.148 142.466 171.472C141.585 170.795 140.951 169.847 140.662 168.773L140.211 167.095C140.104 166.698 140.072 166.284 140.116 165.875L140.974 157.926C142.611 155.894 144.99 155.404 148.374 156.999L150.465 166.353C150.63 167.093 150.628 167.86 150.457 168.599C150.286 169.337 149.952 170.028 149.479 170.619C149.006 171.211 148.406 171.688 147.724 172.016C147.042 172.345 146.294 172.515 145.538 172.515Z" fill="#2F2E41"/>
<path d="M94.434 172.515C93.3235 172.515 92.244 172.148 91.3626 171.472C90.4812 170.795 89.847 169.847 89.5583 168.773L89.1073 167.095C89.0005 166.698 88.9683 166.284 89.0125 165.875L89.8706 157.926C91.507 155.894 93.8863 155.404 97.2702 156.999L99.3614 166.353C99.5267 167.093 99.524 167.86 99.3533 168.599C99.1826 169.337 98.8483 170.028 98.3752 170.619C97.9021 171.211 97.3023 171.688 96.6201 172.016C95.9379 172.345 95.1908 172.515 94.434 172.515Z" fill="#2F2E41"/>
<path d="M110.682 39.3586C114.896 39.3586 118.313 35.9372 118.313 31.7166C118.313 27.496 114.896 24.0746 110.682 24.0746C106.468 24.0746 103.051 27.496 103.051 31.7166C103.051 35.9372 106.468 39.3586 110.682 39.3586Z" fill="#FFB8B8"/>
<path d="M104.785 57.5373C105.169 57.5373 105.479 57.2262 105.479 56.8426C105.479 56.4589 105.169 56.1478 104.785 56.1478C104.402 56.1478 104.092 56.4589 104.092 56.8426C104.092 57.2262 104.402 57.5373 104.785 57.5373Z" fill="#E6E6E6"/>
<path d="M122.359 57.5373C122.743 57.5373 123.053 57.2262 123.053 56.8426C123.053 56.4589 122.743 56.1478 122.359 56.1478C121.976 56.1478 121.666 56.4589 121.666 56.8426C121.666 57.2262 121.976 57.5373 122.359 57.5373Z" fill="#E6E6E6"/>
<path d="M115.654 30.6744L103.629 30.4612V22.5692H118.197L115.654 30.6744Z" fill="#2F2E41"/>
<path d="M120.51 41.0954H115.191C117.157 36.3921 116.984 31.431 115.191 26.2745H120.51V41.0954Z" fill="#2F2E41"/>
<path d="M127.1 84.9792L123.949 88.6783C123.545 89.1534 123.033 89.5251 122.456 89.7625C121.879 89.9998 121.254 90.096 120.633 90.0431C120.011 89.9901 119.412 89.7896 118.883 89.458C118.355 89.1265 117.913 88.6735 117.594 88.1367C117.309 87.656 117.129 87.1197 117.067 86.5638C117.005 86.0079 117.063 85.4452 117.236 84.9133C117.409 84.3815 117.693 83.8927 118.07 83.4798C118.446 83.0669 118.907 82.7393 119.42 82.519L125.019 80.1161L131.725 70.6214L128.025 54.1795L134.5 52.0953L138.199 72.9372L127.1 84.9792Z" fill="#FFB8B8"/>
<path d="M102.82 86.7115L105.97 90.4106C106.375 90.8857 106.887 91.2574 107.464 91.4948C108.041 91.7321 108.666 91.8283 109.287 91.7754C109.908 91.7224 110.508 91.5219 111.037 91.1903C111.565 90.8588 112.007 90.4058 112.326 89.869C112.611 89.3883 112.791 88.852 112.853 88.2961C112.914 87.7402 112.857 87.1775 112.684 86.6456C112.511 86.1138 112.227 85.625 111.85 85.2121C111.473 84.7992 111.013 84.4716 110.5 84.2513L104.901 81.8484L98.1951 72.3537L101.895 55.9118L95.4203 53.8276L91.7205 74.6695L102.82 86.7115Z" fill="#FFB8B8"/>
<path d="M135.424 53.0216C133.973 52.9784 132.528 53.234 131.18 53.7725C129.831 54.311 128.607 55.1209 127.583 56.1523L125.271 42.2577L128.068 42.2249C129.208 42.2672 130.308 42.6589 131.219 43.3471C132.13 44.0354 132.808 44.987 133.162 46.0736L135.424 53.0216Z" fill="#E6E6E6"/>
<path d="M94.4954 54.754C95.9467 54.7108 97.3914 54.9664 98.7402 55.5049C100.089 56.0434 101.313 56.8534 102.337 57.8847C105.013 53.8196 105.401 49.0742 104.649 43.9901L101.852 43.9573C100.712 43.9996 99.6117 44.3913 98.7007 45.0796C97.7897 45.7678 97.1115 46.7195 96.7577 47.806L94.4954 54.754Z" fill="#E6E6E6"/>
<path d="M122.244 56.2636H122.499L124.034 41.985C124.038 41.9459 124.034 41.9062 124.022 41.8687C124.01 41.8312 123.99 41.7967 123.964 41.7674C123.938 41.7381 123.905 41.7147 123.869 41.6986C123.834 41.6826 123.795 41.6743 123.755 41.6743H122.524C122.45 41.6744 122.379 41.704 122.326 41.7567C122.274 41.8093 122.244 41.8807 122.244 41.9552V56.2636Z" fill="#178FFF"/>
<path d="M104.439 56.9583H104.695L106.231 43.8885C106.235 43.8577 106.232 43.8264 106.222 43.7967C106.213 43.7671 106.197 43.7398 106.177 43.7165C106.156 43.6933 106.131 43.6747 106.103 43.662C106.074 43.6493 106.044 43.6427 106.013 43.6427H104.659C104.6 43.6428 104.544 43.666 104.503 43.7073C104.462 43.7486 104.439 43.8046 104.439 43.863V56.9583Z" fill="#178FFF"/>
</g>
<defs>
<clipPath id="clip0_67_192">
<rect width="237" height="175" fill="white"/>
</clipPath>
</defs>
</svg>
